<mxfile host="app.diagrams.net" agent="Mozilla/5.0 (Windows NT 10.0; Win64; x64) AppleWebKit/537.36 (KHTML, like Gecko) Chrome/131.0.0.0 Safari/537.36 Edg/131.0.0.0" version="25.0.1">
  <diagram name="Sayfa -1" id="T5pwk3XgQl33p1_HMzBN">
    <mxGraphModel dx="1141" dy="631" grid="0" gridSize="10" guides="1" tooltips="1" connect="1" arrows="1" fold="1" page="1" pageScale="1" pageWidth="827" pageHeight="1169" math="0" shadow="0">
      <root>
        <mxCell id="0" />
        <mxCell id="1" parent="0" />
        <mxCell id="qgHsqRieCrmRH4iNBKzG-1" value="" style="endArrow=none;html=1;rounded=0;" edge="1" parent="1">
          <mxGeometry width="50" height="50" relative="1" as="geometry">
            <mxPoint x="42" y="127.5" as="sourcePoint" />
            <mxPoint x="82" y="127.5" as="targetPoint" />
          </mxGeometry>
        </mxCell>
        <mxCell id="qgHsqRieCrmRH4iNBKzG-2" value="" style="endArrow=none;html=1;rounded=0;" edge="1" parent="1">
          <mxGeometry width="50" height="50" relative="1" as="geometry">
            <mxPoint x="62" y="197.5" as="sourcePoint" />
            <mxPoint x="62" y="127.5" as="targetPoint" />
          </mxGeometry>
        </mxCell>
        <mxCell id="qgHsqRieCrmRH4iNBKzG-3" value="" style="endArrow=none;html=1;rounded=0;startArrow=oval;startFill=0;" edge="1" parent="1">
          <mxGeometry width="50" height="50" relative="1" as="geometry">
            <mxPoint x="102" y="197.5" as="sourcePoint" />
            <mxPoint x="62" y="197.5" as="targetPoint" />
          </mxGeometry>
        </mxCell>
        <mxCell id="qgHsqRieCrmRH4iNBKzG-4" value="" style="endArrow=none;html=1;rounded=0;startArrow=oval;startFill=0;" edge="1" parent="1">
          <mxGeometry width="50" height="50" relative="1" as="geometry">
            <mxPoint x="102" y="217.5" as="sourcePoint" />
            <mxPoint x="62" y="217.5" as="targetPoint" />
          </mxGeometry>
        </mxCell>
        <mxCell id="qgHsqRieCrmRH4iNBKzG-5" value="" style="endArrow=none;html=1;rounded=0;" edge="1" parent="1">
          <mxGeometry width="50" height="50" relative="1" as="geometry">
            <mxPoint x="62" y="217.5" as="sourcePoint" />
            <mxPoint x="62" y="247.5" as="targetPoint" />
          </mxGeometry>
        </mxCell>
        <mxCell id="qgHsqRieCrmRH4iNBKzG-6" value="" style="triangle;whiteSpace=wrap;html=1;rotation=90;" vertex="1" parent="1">
          <mxGeometry x="54.5" y="235" width="15" height="40" as="geometry" />
        </mxCell>
        <mxCell id="qgHsqRieCrmRH4iNBKzG-7" value="" style="endArrow=none;html=1;rounded=0;startArrow=oval;startFill=0;" edge="1" parent="1">
          <mxGeometry width="50" height="50" relative="1" as="geometry">
            <mxPoint x="142" y="207.5" as="sourcePoint" />
            <mxPoint x="212" y="207.5" as="targetPoint" />
          </mxGeometry>
        </mxCell>
        <mxCell id="qgHsqRieCrmRH4iNBKzG-9" value="" style="shape=offPageConnector;whiteSpace=wrap;html=1;rotation=-90;" vertex="1" parent="1">
          <mxGeometry x="229.98000000000002" y="177.5" width="24.06" height="60" as="geometry" />
        </mxCell>
        <mxCell id="qgHsqRieCrmRH4iNBKzG-10" value="" style="endArrow=none;html=1;rounded=0;" edge="1" parent="1">
          <mxGeometry width="50" height="50" relative="1" as="geometry">
            <mxPoint x="102" y="217.5" as="sourcePoint" />
            <mxPoint x="142" y="207.5" as="targetPoint" />
          </mxGeometry>
        </mxCell>
        <mxCell id="qgHsqRieCrmRH4iNBKzG-11" value="&lt;font style=&quot;font-size: 10px;&quot;&gt;+3.3 V&lt;/font&gt;" style="text;strokeColor=none;align=center;fillColor=none;html=1;verticalAlign=middle;whiteSpace=wrap;rounded=0;" vertex="1" parent="1">
          <mxGeometry x="42" y="107.5" width="40" height="20" as="geometry" />
        </mxCell>
        <mxCell id="qgHsqRieCrmRH4iNBKzG-12" value="&lt;font style=&quot;font-size: 10px;&quot;&gt;PA2&lt;/font&gt;" style="text;strokeColor=none;align=center;fillColor=none;html=1;verticalAlign=middle;whiteSpace=wrap;rounded=0;" vertex="1" parent="1">
          <mxGeometry x="212" y="197.5" width="50" height="20" as="geometry" />
        </mxCell>
        <mxCell id="qgHsqRieCrmRH4iNBKzG-14" value="" style="shape=offPageConnector;whiteSpace=wrap;html=1;rotation=-90;" vertex="1" parent="1">
          <mxGeometry x="430.98" y="7.5" width="24.06" height="60" as="geometry" />
        </mxCell>
        <mxCell id="qgHsqRieCrmRH4iNBKzG-15" value="&lt;span style=&quot;font-size: 10px;&quot;&gt;5V&lt;/span&gt;" style="text;strokeColor=none;align=center;fillColor=none;html=1;verticalAlign=middle;whiteSpace=wrap;rounded=0;" vertex="1" parent="1">
          <mxGeometry x="413" y="27.5" width="50" height="20" as="geometry" />
        </mxCell>
        <mxCell id="qgHsqRieCrmRH4iNBKzG-19" style="edgeStyle=none;rounded=0;orthogonalLoop=1;jettySize=auto;html=1;exitX=0.5;exitY=1;exitDx=0;exitDy=0;entryX=0;entryY=0.108;entryDx=0;entryDy=0;entryPerimeter=0;endArrow=none;endFill=0;" edge="1" parent="1" source="qgHsqRieCrmRH4iNBKzG-14" target="qgHsqRieCrmRH4iNBKzG-29">
          <mxGeometry relative="1" as="geometry" />
        </mxCell>
        <mxCell id="qgHsqRieCrmRH4iNBKzG-20" value="" style="shape=offPageConnector;whiteSpace=wrap;html=1;rotation=-90;" vertex="1" parent="1">
          <mxGeometry x="430.98" y="47.5" width="24.06" height="60" as="geometry" />
        </mxCell>
        <mxCell id="qgHsqRieCrmRH4iNBKzG-21" value="&lt;font style=&quot;font-size: 10px;&quot;&gt;PB11&lt;/font&gt;" style="text;strokeColor=none;align=center;fillColor=none;html=1;verticalAlign=middle;whiteSpace=wrap;rounded=0;" vertex="1" parent="1">
          <mxGeometry x="413" y="67.5" width="50" height="20" as="geometry" />
        </mxCell>
        <mxCell id="qgHsqRieCrmRH4iNBKzG-22" value="" style="shape=offPageConnector;whiteSpace=wrap;html=1;rotation=-90;" vertex="1" parent="1">
          <mxGeometry x="430.98" y="87.5" width="24.06" height="60" as="geometry" />
        </mxCell>
        <mxCell id="qgHsqRieCrmRH4iNBKzG-23" value="&lt;font style=&quot;font-size: 10px;&quot;&gt;PA2&lt;/font&gt;" style="text;strokeColor=none;align=center;fillColor=none;html=1;verticalAlign=middle;whiteSpace=wrap;rounded=0;" vertex="1" parent="1">
          <mxGeometry x="413" y="107.5" width="50" height="20" as="geometry" />
        </mxCell>
        <mxCell id="qgHsqRieCrmRH4iNBKzG-24" value="" style="shape=offPageConnector;whiteSpace=wrap;html=1;rotation=-90;" vertex="1" parent="1">
          <mxGeometry x="430.98" y="127.5" width="24.06" height="60" as="geometry" />
        </mxCell>
        <mxCell id="qgHsqRieCrmRH4iNBKzG-25" value="&lt;font style=&quot;font-size: 10px;&quot;&gt;Ground&lt;/font&gt;" style="text;strokeColor=none;align=center;fillColor=none;html=1;verticalAlign=middle;whiteSpace=wrap;rounded=0;" vertex="1" parent="1">
          <mxGeometry x="413" y="147.5" width="50" height="20" as="geometry" />
        </mxCell>
        <mxCell id="qgHsqRieCrmRH4iNBKzG-26" style="edgeStyle=none;rounded=0;orthogonalLoop=1;jettySize=auto;html=1;exitX=0.5;exitY=1;exitDx=0;exitDy=0;entryX=-0.002;entryY=0.36;entryDx=0;entryDy=0;entryPerimeter=0;endArrow=none;endFill=0;" edge="1" parent="1" source="qgHsqRieCrmRH4iNBKzG-20" target="qgHsqRieCrmRH4iNBKzG-29">
          <mxGeometry relative="1" as="geometry" />
        </mxCell>
        <mxCell id="qgHsqRieCrmRH4iNBKzG-27" style="edgeStyle=none;rounded=0;orthogonalLoop=1;jettySize=auto;html=1;exitX=0.5;exitY=1;exitDx=0;exitDy=0;entryX=0.001;entryY=0.607;entryDx=0;entryDy=0;entryPerimeter=0;endArrow=none;endFill=0;" edge="1" parent="1" source="qgHsqRieCrmRH4iNBKzG-22" target="qgHsqRieCrmRH4iNBKzG-29">
          <mxGeometry relative="1" as="geometry" />
        </mxCell>
        <mxCell id="qgHsqRieCrmRH4iNBKzG-28" style="edgeStyle=none;rounded=0;orthogonalLoop=1;jettySize=auto;html=1;exitX=0.5;exitY=1;exitDx=0;exitDy=0;entryX=0.003;entryY=0.858;entryDx=0;entryDy=0;entryPerimeter=0;endArrow=none;endFill=0;" edge="1" parent="1" source="qgHsqRieCrmRH4iNBKzG-24" target="qgHsqRieCrmRH4iNBKzG-29">
          <mxGeometry relative="1" as="geometry" />
        </mxCell>
        <mxCell id="qgHsqRieCrmRH4iNBKzG-29" value="&lt;div style=&quot;padding-right: 15px; padding-left: 15px;&quot;&gt;&lt;span style=&quot;background-color: initial;&quot;&gt;&lt;font style=&quot;font-size: 17px;&quot;&gt;HC-SR04 Ultrasonic Sensor&lt;/font&gt;&lt;/span&gt;&lt;/div&gt;" style="whiteSpace=wrap;html=1;aspect=fixed;align=center;" vertex="1" parent="1">
          <mxGeometry x="623" y="20" width="160" height="160" as="geometry" />
        </mxCell>
        <mxCell id="qgHsqRieCrmRH4iNBKzG-30" value="&lt;font style=&quot;font-size: 11px;&quot;&gt;VCC&lt;/font&gt;" style="text;strokeColor=none;align=left;fillColor=none;html=1;verticalAlign=middle;whiteSpace=wrap;rounded=0;" vertex="1" parent="1">
          <mxGeometry x="623" y="23.75" width="40" height="27.5" as="geometry" />
        </mxCell>
        <mxCell id="qgHsqRieCrmRH4iNBKzG-31" value="&lt;font style=&quot;font-size: 11px;&quot;&gt;TRIG&lt;/font&gt;" style="text;strokeColor=none;align=left;fillColor=none;html=1;verticalAlign=middle;whiteSpace=wrap;rounded=0;" vertex="1" parent="1">
          <mxGeometry x="623" y="63.75" width="40" height="27.5" as="geometry" />
        </mxCell>
        <mxCell id="qgHsqRieCrmRH4iNBKzG-32" value="&lt;font style=&quot;font-size: 11px;&quot;&gt;ECHO&lt;/font&gt;" style="text;strokeColor=none;align=left;fillColor=none;html=1;verticalAlign=middle;whiteSpace=wrap;rounded=0;" vertex="1" parent="1">
          <mxGeometry x="623" y="103.75" width="40" height="27.5" as="geometry" />
        </mxCell>
        <mxCell id="qgHsqRieCrmRH4iNBKzG-33" value="&lt;font style=&quot;font-size: 11px;&quot;&gt;GND&lt;/font&gt;" style="text;strokeColor=none;align=left;fillColor=none;html=1;verticalAlign=middle;whiteSpace=wrap;rounded=0;" vertex="1" parent="1">
          <mxGeometry x="623" y="143.75" width="40" height="27.5" as="geometry" />
        </mxCell>
        <mxCell id="qgHsqRieCrmRH4iNBKzG-37" value="" style="shape=offPageConnector;whiteSpace=wrap;html=1;rotation=-90;" vertex="1" parent="1">
          <mxGeometry x="429.99" y="258.75" width="24.06" height="60" as="geometry" />
        </mxCell>
        <mxCell id="qgHsqRieCrmRH4iNBKzG-38" value="&lt;font style=&quot;font-size: 10px;&quot;&gt;PB10&lt;/font&gt;" style="text;strokeColor=none;align=center;fillColor=none;html=1;verticalAlign=middle;whiteSpace=wrap;rounded=0;" vertex="1" parent="1">
          <mxGeometry x="412.01" y="278.75" width="50" height="20" as="geometry" />
        </mxCell>
        <mxCell id="qgHsqRieCrmRH4iNBKzG-39" value="" style="shape=offPageConnector;whiteSpace=wrap;html=1;rotation=-90;" vertex="1" parent="1">
          <mxGeometry x="429.99" y="316.25" width="24.06" height="60" as="geometry" />
        </mxCell>
        <mxCell id="qgHsqRieCrmRH4iNBKzG-40" value="&lt;font style=&quot;font-size: 10px;&quot;&gt;Ground&lt;/font&gt;" style="text;strokeColor=none;align=center;fillColor=none;html=1;verticalAlign=middle;whiteSpace=wrap;rounded=0;" vertex="1" parent="1">
          <mxGeometry x="412.01" y="336.25" width="50" height="20" as="geometry" />
        </mxCell>
        <mxCell id="qgHsqRieCrmRH4iNBKzG-43" style="edgeStyle=none;rounded=0;orthogonalLoop=1;jettySize=auto;html=1;exitX=0.5;exitY=1;exitDx=0;exitDy=0;entryX=0;entryY=0.5;entryDx=0;entryDy=0;endArrow=none;endFill=0;" edge="1" parent="1" source="qgHsqRieCrmRH4iNBKzG-37" target="qgHsqRieCrmRH4iNBKzG-48">
          <mxGeometry relative="1" as="geometry" />
        </mxCell>
        <mxCell id="qgHsqRieCrmRH4iNBKzG-44" style="edgeStyle=none;rounded=0;orthogonalLoop=1;jettySize=auto;html=1;exitX=0.5;exitY=1;exitDx=0;exitDy=0;entryX=0.014;entryY=0.703;entryDx=0;entryDy=0;entryPerimeter=0;endArrow=none;endFill=0;" edge="1" parent="1" source="qgHsqRieCrmRH4iNBKzG-39" target="qgHsqRieCrmRH4iNBKzG-46">
          <mxGeometry relative="1" as="geometry" />
        </mxCell>
        <mxCell id="qgHsqRieCrmRH4iNBKzG-46" value="&lt;div style=&quot;padding-right: 15px; padding-left: 15px;&quot;&gt;&lt;span style=&quot;background-color: initial;&quot;&gt;&lt;font style=&quot;font-size: 17px;&quot;&gt;Buzzer&lt;/font&gt;&lt;/span&gt;&lt;/div&gt;" style="whiteSpace=wrap;html=1;aspect=fixed;align=center;" vertex="1" parent="1">
          <mxGeometry x="623" y="235" width="160" height="160" as="geometry" />
        </mxCell>
        <mxCell id="qgHsqRieCrmRH4iNBKzG-48" value="&lt;font style=&quot;font-size: 14px;&quot;&gt;+&lt;/font&gt;" style="text;strokeColor=none;align=center;fillColor=none;html=1;verticalAlign=middle;whiteSpace=wrap;rounded=0;" vertex="1" parent="1">
          <mxGeometry x="623" y="275" width="40" height="27.5" as="geometry" />
        </mxCell>
        <mxCell id="qgHsqRieCrmRH4iNBKzG-50" value="&lt;font style=&quot;font-size: 14px;&quot;&gt;&lt;b&gt;-&lt;/b&gt;&lt;/font&gt;" style="text;strokeColor=none;align=center;fillColor=none;html=1;verticalAlign=middle;whiteSpace=wrap;rounded=0;" vertex="1" parent="1">
          <mxGeometry x="623" y="332.5" width="40" height="27.5" as="geometry" />
        </mxCell>
      </root>
    </mxGraphModel>
  </diagram>
</mxfile>
